<svg width="57" height="66" viewBox="0 0 57 66" fill="none" xmlns="http://www.w3.org/2000/svg">
<path d="M48.4627 12.5168C43.1317 7.10273 36.0321 4.125 28.4873 4.125C12.9141 4.125 0.241741 16.9641 0.241741 32.7422C0.241741 37.7824 1.53951 42.7066 4.00781 47.0508L0 61.875L14.9752 57.8918C19.0975 60.1734 23.7415 61.3723 28.4746 61.3723H28.4873C44.0478 61.3723 57 48.5332 57 32.7551C57 25.1109 53.7938 17.9309 48.4627 12.5168ZM28.4873 56.5512C24.2632 56.5512 20.1281 55.4039 16.5275 53.2383L15.675 52.7227L6.7942 55.0816L9.16072 46.3031L8.60089 45.4008C6.2471 41.6109 5.01295 37.241 5.01295 32.7422C5.01295 19.6324 15.5478 8.95898 28.5 8.95898C34.7725 8.95898 40.6634 11.434 45.0911 15.9328C49.5188 20.4316 52.2415 26.4 52.2288 32.7551C52.2288 45.8777 41.4268 56.5512 28.4873 56.5512ZM41.3632 38.7363C40.6634 38.3754 37.19 36.648 36.5411 36.416C35.8922 36.1711 35.4214 36.0551 34.9507 36.777C34.4799 37.4988 33.1313 39.0973 32.7114 39.5871C32.3042 40.0641 31.8844 40.1285 31.1846 39.7676C27.0368 37.6664 24.3141 36.0164 21.5786 31.2598C20.8533 29.9965 22.3038 30.0867 23.6525 27.3539C23.8815 26.877 23.767 26.4645 23.5888 26.1035C23.4107 25.7426 21.9984 22.2234 21.4132 20.7926C20.8406 19.4004 20.2554 19.5938 19.8228 19.568C19.4156 19.5422 18.9449 19.5422 18.4741 19.5422C18.0033 19.5422 17.24 19.7227 16.5911 20.4316C15.9422 21.1535 14.1228 22.8809 14.1228 26.4C14.1228 29.9191 16.6547 33.3223 16.9982 33.7992C17.3545 34.2762 21.973 41.4949 29.0598 44.6016C33.5384 46.5609 35.2942 46.7285 37.5335 46.3934C38.8949 46.1871 41.7067 44.666 42.292 42.9902C42.8772 41.3145 42.8772 39.8836 42.6991 39.5871C42.5337 39.2648 42.063 39.0844 41.3632 38.7363Z" fill="#393E46"/>
</svg>
