<svg width="54" height="62" viewBox="0 0 54 62" fill="none" xmlns="http://www.w3.org/2000/svg">
<path d="M50.1429 3.875H3.84509C1.72366 3.875 0 5.63086 0 7.78633V54.2137C0 56.3691 1.72366 58.125 3.84509 58.125H50.1429C52.2643 58.125 54 56.3691 54 54.2137V7.78633C54 5.63086 52.2643 3.875 50.1429 3.875ZM16.3205 50.375H8.31696V24.4852H16.3326V50.375H16.3205ZM12.3187 20.9492C9.75134 20.9492 7.67813 18.8543 7.67813 16.2871C7.67813 13.7199 9.75134 11.625 12.3187 11.625C14.8741 11.625 16.9594 13.7199 16.9594 16.2871C16.9594 18.8664 14.8862 20.9492 12.3187 20.9492ZM46.3219 50.375H38.3183V37.7812C38.3183 34.7781 38.258 30.9152 34.1598 30.9152C29.9893 30.9152 29.3504 34.1848 29.3504 37.5633V50.375H21.3469V24.4852H29.025V28.0211H29.1335C30.2062 25.9867 32.8219 23.8434 36.7152 23.8434C44.8152 23.8434 46.3219 29.2078 46.3219 36.1828V50.375Z" fill="#393E46"/>
</svg>
