<svg width="58" height="58" viewBox="0 0 58 58" fill="none" xmlns="http://www.w3.org/2000/svg">
<g clip-path="url(#clip0_34_552)">
<path d="M24.4008 10.875H16.3125H12.2117H10.875V11.8719V16.3125V20.8891V30.9711L0.0226563 22.9395C0.203906 20.8891 1.25742 18.9859 2.93398 17.7512L5.4375 15.8934V10.875C5.4375 7.87305 7.87305 5.4375 10.875 5.4375H19.5523L25.2051 1.25742C26.3039 0.441797 27.6293 0 29 0C30.3707 0 31.6961 0.441797 32.7949 1.24609L38.4477 5.4375H47.125C50.127 5.4375 52.5625 7.87305 52.5625 10.875V15.8934L55.066 17.7512C56.7426 18.9859 57.7961 20.8891 57.9773 22.9395L47.125 30.9711V20.8891V16.3125V11.8719V10.875H45.7883H41.6875H33.5992H24.4008ZM0 50.75V27.4254L24.65 45.6863C25.9074 46.6152 27.4367 47.125 29 47.125C30.5633 47.125 32.0926 46.6266 33.35 45.6863L58 27.4254V50.75C58 54.7488 54.7488 58 50.75 58H7.25C3.25117 58 0 54.7488 0 50.75ZM19.9375 18.125H38.0625C39.0594 18.125 39.875 18.9406 39.875 19.9375C39.875 20.9344 39.0594 21.75 38.0625 21.75H19.9375C18.9406 21.75 18.125 20.9344 18.125 19.9375C18.125 18.9406 18.9406 18.125 19.9375 18.125ZM19.9375 25.375H38.0625C39.0594 25.375 39.875 26.1906 39.875 27.1875C39.875 28.1844 39.0594 29 38.0625 29H19.9375C18.9406 29 18.125 28.1844 18.125 27.1875C18.125 26.1906 18.9406 25.375 19.9375 25.375Z" fill="#393E46"/>
</g>
<defs>
<clipPath id="clip0_34_552">
<rect width="58" height="58" fill="white"/>
</clipPath>
</defs>
</svg>
