<svg width="988" height="295" viewBox="0 0 988 295" fill="none" xmlns="http://www.w3.org/2000/svg">
<path d="M324.945 150.568C324.945 165.955 332.565 175.976 345.042 175.976C353.352 175.976 359.761 172.519 364.968 162.837L383.672 171.999C376.403 188.425 361.844 196.018 344.532 196.018C319.748 196.018 302.086 177.174 302.086 150.557C302.086 123.941 319.748 105.097 344.532 105.097C361.844 105.097 376.403 112.7 383.672 129.116L364.968 138.278C359.761 128.586 353.352 125.139 345.042 125.139C332.565 125.139 324.945 135.16 324.945 150.547V150.568Z" fill="black"/>
<path d="M479.595 150.568C479.595 177.015 461.242 196.028 434.556 196.028C407.871 196.028 389.698 177.015 389.698 150.568C389.698 124.121 407.892 105.108 434.556 105.108C461.221 105.108 479.595 124.28 479.595 150.568ZM456.725 150.568C456.725 135.531 448.415 125.161 434.546 125.161C420.677 125.161 412.547 135.531 412.547 150.568C412.547 165.605 420.858 175.976 434.546 175.976C448.234 175.976 456.725 165.785 456.725 150.568Z" fill="black"/>
<path d="M516.812 133.273V193.78H494.293V107.356H512.647L514.219 115.649C521.659 108.904 531.723 105.108 541.766 105.108C555.103 105.108 562.553 109.944 566.538 117.377C574.158 109.435 585.072 105.108 595.817 105.108C621.28 105.108 624.914 122.902 624.914 140.887V193.78H602.395V140.197C602.395 128.257 598.93 124.98 590.45 124.98C583.34 124.98 575.89 128.437 570.704 133.623C570.874 136.051 570.874 138.469 570.874 140.897V193.791H548.355V140.208C548.355 128.268 544.89 124.991 536.409 124.991C529.3 124.991 522.201 128.448 516.834 133.283L516.812 133.273Z" fill="black"/>
<path d="M667.116 186.877V224.045H644.596V107.356H662.95L664.682 117.197C671.091 109.944 679.752 105.108 690.146 105.108C713.707 105.108 730.859 124.121 730.859 150.568C730.859 177.015 713.707 196.028 690.146 196.028C680.974 196.028 673.174 192.582 667.116 186.877ZM708 150.568C708 135.182 699.859 125.161 687.563 125.161C674.226 125.161 667.127 135.182 667.127 150.568C667.127 165.955 674.236 175.976 687.563 175.976C699.859 175.976 708 165.955 708 150.568Z" fill="black"/>
<path d="M766.844 194.639C751.264 194.639 742.071 186.527 742.071 168.373V72.7864H764.591V163.537C764.591 170.631 767.184 173.399 773.082 173.399V194.31C771.35 194.491 769.267 194.66 766.833 194.66L766.844 194.639Z" fill="black"/>
<path d="M798.184 66.5512C806.165 66.5512 812.393 72.9455 812.393 80.9093C812.393 88.873 806.165 94.9068 798.184 94.9068C790.203 94.9068 783.986 88.5125 783.986 80.9093C783.986 73.3061 790.394 66.5512 798.184 66.5512ZM786.929 193.78V107.356H809.449V193.78H786.929Z" fill="black"/>
<path d="M847.038 150.568C847.038 165.955 854.658 175.976 867.134 175.976C875.445 175.976 881.853 172.519 887.061 162.837L905.765 171.999C898.496 188.425 883.936 196.018 866.624 196.018C841.841 196.018 824.178 177.174 824.178 150.557C824.178 123.941 841.841 105.097 866.624 105.097C883.936 105.097 898.496 112.7 905.765 129.116L887.061 138.278C881.853 128.586 875.445 125.139 867.134 125.139C854.658 125.139 847.038 135.16 847.038 150.547V150.568Z" fill="black"/>
<path d="M969.296 186.188C963.047 192.243 953.875 196.209 944.343 196.209C927.031 196.209 911.77 183.759 911.77 166.994C911.77 148.681 927.02 137.61 945.543 137.61C954.906 137.61 961.144 141.056 965.47 145.033V136.051C965.47 128.957 959.752 123.952 949.008 123.952C942.6 123.952 934.629 125.171 925.447 130.187L919.039 113.581C930.123 107.876 939.656 105.119 952.834 105.119C976.214 105.119 988 118.247 988 139.858V193.791H970.337L969.296 186.188ZM934.65 166.994C934.65 173.908 941.059 178.404 949.029 178.404C957 178.404 963.238 173.908 963.408 166.994C963.408 160.08 957.34 155.404 949.029 155.404C940.719 155.404 934.65 160.08 934.65 166.994Z" fill="black"/>
<path d="M247.757 0.742101L32.2329 39.4156C14.5064 42.5968 0 59.9665 0 80.8886V211.553C0 232.995 14.4852 249.983 32.1798 253.334L247.821 294.224C274.081 299.197 295.569 279.717 295.569 251.796V45.0994C295.569 14.2518 274.049 -3.98737 247.746 0.742101H247.757Z" fill="#00E78E"/>
<path d="M239.565 196.028C225.717 196.028 214.792 189.814 206.482 177.185L220.51 165.785C228.65 175.287 234.028 177.874 242.168 177.874C248.056 177.874 252.381 174.778 252.381 170.112C252.381 164.226 246.845 161.639 231.775 158.352C217.566 155.234 208.905 147.451 208.905 131.725C208.905 117.038 221.201 104.769 241.478 104.769C255.687 104.769 266.08 111.683 271.798 119.625L257.94 132.075C254.996 127.918 248.757 123.602 240.256 123.602C233.326 123.602 228.82 126.55 228.82 131.725C228.82 136.221 231.594 138.978 243.72 141.746C261.734 145.902 272.648 152.806 272.648 168.882C272.648 184.958 258.269 196.018 239.554 196.018L239.565 196.028Z" fill="black"/>
<path d="M202.199 147.111C202.199 122.912 187.129 105.119 160.624 105.119C134.12 105.119 117.477 123.252 117.477 150.579C117.477 177.906 136.713 196.039 162.335 196.039C180.869 196.039 192.305 188.436 201.317 172.879L183.303 163.548C177.766 172.72 169.626 176.347 162.335 176.347C150.209 176.527 142.59 169.603 140.687 158.373H201.317C202.007 154.746 202.188 150.409 202.188 147.132L202.199 147.111ZM141.208 140.717C143.121 129.487 149.54 122.743 160.444 122.743C171.347 122.743 178.457 129.487 179.328 140.717H141.208Z" fill="black"/>
<path d="M83.7458 72.7864V114.27C77.6776 108.565 69.8877 105.119 60.7162 105.119C37.1553 105.119 20.0026 124.291 20.0026 150.579C20.0026 176.867 37.1553 196.039 60.7162 196.039C71.1098 196.039 79.7712 191.203 86.1795 183.94L87.9117 193.801H106.265V72.7864H83.7458V72.7864ZM63.3093 175.986C51.0134 175.986 42.8728 165.965 42.8728 150.579C42.8728 135.192 51.0134 125.171 63.3093 125.171C76.6467 125.171 83.7458 135.192 83.7458 150.579C83.7458 165.965 76.6467 175.986 63.3093 175.986Z" fill="black"/>
</svg>
