<svg width="33" height="33" viewBox="0 0 33 33" fill="none" xmlns="http://www.w3.org/2000/svg">
<path d="M16.5 0C12.1239 0 7.92709 1.73839 4.83274 4.83274C1.73839 7.92709 0 12.1239 0 16.5C0 20.8761 1.73839 25.0729 4.83274 28.1673C7.92709 31.2616 12.1239 33 16.5 33C20.8761 33 25.0729 31.2616 28.1673 28.1673C31.2616 25.0729 33 20.8761 33 16.5C33 12.1239 31.2616 7.92709 28.1673 4.83274C25.0729 1.73839 20.8761 0 16.5 0ZM8.18555 18.1113C7.57969 17.5055 7.57969 16.5258 8.18555 15.9264C8.79141 15.327 9.77109 15.3205 10.3705 15.9264L14.9467 20.5025L14.9531 8.76562C14.9531 7.9084 15.6428 7.21875 16.5 7.21875C17.3572 7.21875 18.0469 7.9084 18.0469 8.76562V20.5025L22.623 15.9264C23.2289 15.3205 24.2086 15.3205 24.808 15.9264C25.4074 16.5322 25.4139 17.5119 24.808 18.1113L17.5957 25.3301C16.9898 25.9359 16.0102 25.9359 15.4107 25.3301L8.18555 18.1113Z" fill="#393E46"/>
</svg>
