<svg width="26px" height="45px" viewBox="0 0 26 45" fill="none" xmlns="http://www.w3.org/2000/svg">
<path d="M4.72731 44.5714C4.72731 44.5714 4.95911e-05 44.5714 4.95911e-05 40.5196V4.05178C0.000116348 0 4.72731 0 4.72731 0H21.2727C21.2727 0 26 0 26 4.05178V40.5196C25.9999 44.5714 21.2727 44.5714 21.2727 44.5714H4.72731ZM13 42.8843C14.3047 42.8843 15.3636 41.9781 15.3636 40.8615C15.3636 39.7449 14.3047 38.8387 13 38.8387C11.6953 38.8387 10.6364 39.7449 10.6364 40.8615C10.6364 41.9781 11.6953 42.8843 13 42.8843ZM16.5455 2.46989C16.5455 2.21906 16.406 2.02282 16.2312 2.02282H9.76902C9.59647 2.02282 9.45463 2.22311 9.45463 2.46989V2.58925C9.45463 2.84008 9.59647 3.03631 9.76902 3.03631H16.2312C16.4037 3.03631 16.5455 2.83602 16.5455 2.58925V2.46989ZM23.6363 5.05711H2.36371V37.4226H23.6363V5.05711Z" fill="#393E46"/>
</svg>
